<?xml version="1.0" standalone="no"?>
<!DOCTYPE svg PUBLIC "-//W3C//DTD SVG 20010904//EN"
 "http://www.w3.org/TR/2001/REC-SVG-20010904/DTD/svg10.dtd">
<svg version="1.0" xmlns="http://www.w3.org/2000/svg"
 width="2000.000000pt" height="1500.000000pt" viewBox="0 0 2000.000000 1500.000000"
 preserveAspectRatio="xMidYMid meet">

<g transform="translate(0.000000,1500.000000) scale(0.100000,-0.100000)"
fill="#000000" stroke="none">
<path d="M9702 11959 c-263 -99 -443 -182 -568 -264 -46 -30 -86 -55 -88 -55
-2 0 -3 42 -2 93 l1 92 -27 3 c-22 3 -47 -16 -143 -105 -133 -123 -194 -166
-233 -165 -15 0 -63 2 -107 3 -133 4 -237 -41 -346 -151 -59 -60 -109 -140
-132 -212 -9 -27 -71 -32 -222 -19 -142 12 -177 10 -228 -16 -44 -22 -228
-184 -397 -348 -85 -83 -163 -158 -173 -166 -9 -8 -82 -82 -160 -165 l-143
-150 -43 -122 c-23 -67 -56 -141 -73 -164 -32 -44 -200 -214 -444 -448 -257
-246 -367 -436 -453 -775 -35 -143 -57 -261 -111 -615 -22 -146 -44 -281 -49
-300 -7 -31 -2 -47 50 -145 152 -290 254 -565 308 -832 36 -173 26 -213 -49
-213 -38 0 -39 0 -46 -46 -3 -25 -2 -97 4 -159 14 -139 17 -150 269 -720 211
-477 280 -645 350 -854 45 -132 50 -141 77 -147 16 -3 48 -24 72 -46 47 -43
54 -62 94 -238 57 -249 184 -448 345 -541 110 -63 145 -71 350 -79 215 -8 251
-17 330 -80 150 -118 281 -170 448 -178 l109 -5 211 -109 c257 -133 391 -207
477 -265 72 -48 100 -53 131 -22 28 28 39 12 39 -61 l0 -55 193 22 c271 32
656 41 837 19 74 -8 182 -27 240 -41 91 -23 111 -25 150 -15 124 32 267 2 431
-89 89 -50 158 -67 192 -49 16 8 18 17 13 49 -6 37 -4 39 31 58 45 22 124 45
253 70 114 23 124 20 188 -59 45 -55 87 -90 108 -90 7 0 13 30 16 79 8 130 32
151 179 151 l89 0 0 73 c0 77 14 117 53 147 13 10 71 72 130 138 102 113 202
204 257 232 23 12 27 10 92 -61 l68 -74 0 37 c0 54 -32 119 -90 183 -28 31
-50 64 -48 72 4 21 158 74 219 76 30 0 58 -6 82 -20 l35 -21 -14 34 c-29 69
28 105 170 110 69 2 96 8 116 22 38 29 61 75 67 138 6 55 10 61 135 213 230
278 387 522 547 851 89 184 214 480 206 488 -6 7 -91 -63 -154 -127 -30 -30
-80 -91 -112 -136 -114 -157 -135 -173 -184 -141 -20 13 -26 14 -29 4 -34
-108 -58 -178 -62 -178 -2 0 -1 32 2 70 4 39 4 70 0 70 -3 0 -115 -84 -248
-187 -442 -342 -813 -610 -1203 -870 -248 -165 -267 -176 -321 -177 -45 -1
-73 17 -104 67 l-18 28 -51 -45 c-63 -56 -86 -69 -111 -61 -22 7 -35 43 -28
78 4 21 1 22 -66 24 -79 3 -98 -7 -116 -63 -15 -44 -33 -43 -61 4 l-23 37 -17
-85 c-9 -47 -17 -76 -18 -64 0 11 -7 29 -15 39 -13 18 -15 18 -42 -11 -16 -16
-34 -38 -39 -48 -9 -15 -17 -9 -58 52 -26 38 -56 77 -67 87 -20 18 -20 18 -5
-25 27 -75 14 -120 -24 -86 -17 16 -18 14 -24 -41 -4 -39 -11 -60 -23 -66 -10
-6 -45 -36 -79 -67 l-61 -57 -89 -7 c-127 -9 -295 -35 -403 -61 -92 -22 -92
-22 -170 -4 -292 71 -594 120 -908 149 -246 23 -337 38 -470 81 -90 29 -346
151 -393 188 l-24 19 30 16 c46 23 73 63 72 105 0 20 -3 31 -5 24 -10 -23 -70
-51 -147 -68 l-77 -17 -163 154 c-89 85 -297 280 -462 434 -431 401 -769 746
-888 905 -41 54 -108 196 -196 412 -44 108 -89 214 -101 236 -20 41 -20 41
-40 21 -39 -39 -84 -17 -115 56 -31 75 -9 134 49 134 17 0 38 -6 45 -12 11
-11 12 -7 8 22 -35 209 -88 625 -85 661 3 28 26 91 56 155 28 60 53 120 56
134 3 14 31 257 61 540 62 571 79 681 130 859 120 418 337 761 730 1157 148
149 488 466 575 536 40 32 485 300 740 446 289 165 556 276 797 333 185 43
265 51 558 57 266 6 293 9 329 28 61 32 80 77 84 206 l4 108 -31 -6 c-54 -11
-94 4 -171 66 -41 32 -95 68 -120 78 l-45 19 -233 -88z m-3417 -5695 c18 -7
47 -61 105 -194 21 -49 48 -103 60 -120 28 -39 9 -40 -48 -3 -48 31 -82 91
-82 144 0 19 -15 64 -35 103 -19 39 -35 71 -35 73 0 5 17 3 35 -3z m-108 -16
c5 -7 15 -31 21 -53 7 -22 18 -61 26 -87 8 -27 14 -48 12 -48 -2 0 -31 34 -65
76 -61 73 -62 76 -46 100 17 26 37 31 52 12z"/>
<path d="M11358 11750 c-197 -6 -212 -11 -253 -83 -19 -33 -22 -34 -45 -21
-31 17 -227 19 -285 3 -81 -23 -144 -120 -129 -200 18 -91 106 -179 249 -250
121 -60 227 -88 360 -96 l100 -5 115 -66 c276 -157 535 -329 1129 -754 l403
-288 52 0 c40 0 71 9 135 40 45 22 86 40 91 40 4 0 10 -53 12 -117 4 -106 9
-130 47 -243 84 -243 114 -291 238 -381 94 -67 146 -137 169 -229 19 -76 15
-184 -11 -273 l-17 -57 57 -108 c94 -178 200 -316 301 -392 52 -39 54 -42 54
-88 0 -54 27 -115 53 -120 10 -2 32 11 52 31 l35 35 0 -26 c0 -15 -7 -85 -16
-157 -17 -139 -21 -388 -7 -445 7 -29 11 -12 21 100 25 271 94 619 146 745 29
69 -8 56 -59 -21 -32 -48 -69 -84 -86 -84 -3 0 -9 80 -13 178 -9 221 -27 412
-71 759 l-35 273 -457 732 -458 733 -110 114 c-293 304 -675 528 -1125 659
-203 59 -324 71 -642 62z"/>
<path d="M8420 9920 c-172 -15 -319 -54 -455 -122 -106 -54 -157 -89 -239
-167 -113 -109 -196 -251 -233 -398 -25 -103 -23 -332 6 -438 66 -249 218
-416 513 -566 133 -67 253 -113 513 -198 475 -155 642 -278 691 -510 31 -147
9 -318 -57 -442 -38 -70 -131 -161 -213 -207 -225 -127 -572 -145 -874 -46
-108 37 -270 122 -386 205 l-98 71 -23 -23 c-66 -69 -225 -253 -225 -260 0
-14 141 -130 227 -186 162 -106 366 -185 578 -224 163 -31 507 -33 660 -5 271
49 486 154 645 315 201 203 294 485 261 793 -26 239 -106 407 -267 557 -151
141 -319 223 -769 371 -361 120 -517 194 -612 292 -83 86 -120 203 -110 356
11 192 102 316 288 394 102 43 187 58 330 58 255 0 439 -59 672 -217 106 -71
111 -73 127 -56 73 76 230 257 230 264 0 12 -123 109 -215 169 -209 135 -410
200 -691 220 -150 11 -147 11 -274 0z"/>
<path d="M9960 9858 c1 -7 247 -778 549 -1713 l548 -1700 254 0 254 0 546
1710 546 1710 -226 3 c-124 1 -230 1 -236 -2 -6 -2 -204 -659 -440 -1459 -237
-801 -433 -1453 -436 -1449 -4 4 -200 661 -435 1460 l-429 1452 -247 0 c-192
0 -248 -3 -248 -12z"/>
<path d="M7737 5843 c-4 -3 1 -12 11 -19 15 -11 17 -37 17 -276 l0 -264 47 0
c34 1 42 3 30 10 -9 5 -20 14 -24 20 -4 6 -8 129 -8 274 l0 262 -33 0 c-19 0
-37 -3 -40 -7z"/>
<path d="M8358 5844 c-4 -3 2 -14 13 -25 18 -18 19 -36 19 -276 l0 -258 43 0
42 0 -22 22 c-23 22 -23 26 -23 283 l0 260 -33 0 c-19 0 -36 -3 -39 -6z"/>
<path d="M8577 5843 c-4 -3 2 -12 13 -20 19 -14 20 -26 20 -276 l0 -262 43 0
c42 0 42 1 23 17 -20 15 -21 28 -24 282 l-3 266 -33 0 c-18 0 -36 -3 -39 -7z"/>
<path d="M9547 5843 c-4 -3 1 -12 11 -19 15 -11 17 -37 17 -276 l0 -264 47 0
c34 1 42 3 30 10 -9 5 -20 14 -24 20 -4 6 -8 129 -8 274 l0 262 -33 0 c-19 0
-37 -3 -40 -7z"/>
<path d="M8914 5826 c-48 -21 -72 -60 -80 -127 -6 -56 -9 -60 -35 -66 -16 -3
-29 -9 -29 -14 0 -5 14 -6 30 -2 l30 6 0 -169 0 -169 44 0 c38 0 41 1 25 13
-17 12 -19 28 -19 168 l0 154 43 0 c23 0 49 5 57 10 11 7 -2 10 -44 10 l-58 0
4 64 c5 86 26 116 78 116 36 0 40 -3 40 -24 0 -14 5 -28 10 -31 6 -4 10 10 10
34 0 41 0 41 -37 41 -21 -1 -52 -7 -69 -14z"/>
<path d="M8172 5802 c-44 -21 -39 -48 8 -44 42 3 41 2 32 34 -7 25 -8 25 -40
10z"/>
<path d="M7424 5796 c-37 -16 -70 -57 -79 -96 -11 -49 20 -96 104 -157 103
-75 111 -85 111 -145 0 -41 -5 -54 -29 -79 -24 -23 -38 -29 -73 -29 -77 0 -87
6 -90 59 l-3 46 -16 -50 c-19 -58 -17 -59 69 -71 62 -8 128 10 164 46 23 24
28 37 28 80 0 69 -17 94 -107 160 -41 30 -84 67 -94 82 -28 38 -24 82 9 119
24 27 36 32 76 33 58 1 80 -21 73 -74 l-5 -35 13 30 c28 66 28 74 0 85 -37 14
-114 12 -151 -4z"/>
<path d="M9925 5785 l-30 -13 32 -1 c30 -1 35 -6 66 -73 53 -111 86 -193 127
-308 21 -58 43 -105 50 -105 9 0 91 190 203 473 l17 42 -30 0 c-26 0 -29 -2
-19 -17 8 -14 -5 -57 -64 -208 -40 -104 -77 -199 -81 -210 l-8 -20 -8 20 c-5
11 -32 81 -61 155 -29 74 -67 168 -85 208 -36 79 -48 85 -109 57z"/>
<path d="M7969 5639 c24 -10 23 -11 -49 -84 l-73 -74 73 -98 c40 -54 74 -99
75 -101 1 -1 16 1 32 4 l31 6 -29 27 c-15 14 -55 60 -88 101 l-60 75 77 78 77
77 -45 -1 c-40 0 -42 -1 -21 -10z"/>
<path d="M8147 5643 c-4 -3 1 -12 11 -19 15 -11 17 -32 17 -178 0 -134 3 -165
13 -161 8 3 22 5 33 5 16 0 18 3 9 19 -6 11 -10 89 -10 180 l0 161 -33 0 c-19
0 -37 -3 -40 -7z"/>
<path d="M9100 5641 c-23 -4 -31 -9 -22 -14 9 -6 12 -47 12 -147 0 -134 1
-139 26 -169 43 -51 143 -52 189 -1 25 27 45 25 45 -5 0 -21 5 -25 28 -24 33
1 78 17 50 18 -31 2 -38 37 -38 194 l0 154 -29 -5 c-27 -4 -29 -6 -20 -29 5
-13 9 -75 9 -137 0 -109 -1 -113 -27 -138 -55 -53 -130 -60 -169 -17 -17 19
-19 38 -19 175 0 85 0 153 0 153 0 -1 -16 -4 -35 -8z"/>
<path d="M10540 5632 c-19 -10 -48 -38 -65 -61 -27 -38 -30 -51 -30 -115 0
-93 30 -145 99 -171 70 -27 130 -14 182 39 86 86 82 232 -8 299 -40 30 -132
34 -178 9z m140 -21 c37 -26 54 -67 58 -143 7 -113 -22 -165 -99 -175 -57 -8
-103 17 -129 72 -38 79 -19 227 33 253 49 24 95 22 137 -7z"/>
<path d="M10866 5643 c-17 -5 -17 -7 6 -27 24 -19 158 -318 158 -349 0 -20
-46 -111 -63 -125 -14 -12 -20 -10 -41 13 -22 23 -27 25 -45 13 -29 -18 -22
-30 27 -48 40 -14 42 -13 68 10 39 37 49 60 199 458 l24 62 -36 0 c-32 0 -35
-2 -19 -13 16 -12 14 -23 -35 -165 -28 -83 -55 -150 -59 -147 -4 3 -11 19 -14
37 -4 18 -30 89 -59 158 -54 129 -61 136 -111 123z"/>
<path d="M11340 5643 c-41 -15 -80 -36 -80 -44 0 -4 19 1 43 11 54 25 111 26
135 2 18 -18 37 -95 28 -111 -3 -4 -31 -13 -63 -20 -110 -25 -163 -69 -163
-136 0 -30 29 -62 66 -71 35 -9 97 11 126 41 31 33 41 31 33 -7 -6 -26 -5 -30
10 -25 9 4 26 7 38 8 12 0 16 3 10 6 -10 3 -13 41 -13 139 0 143 -10 182 -49
204 -20 10 -95 12 -121 3z m130 -217 c0 -66 -31 -109 -91 -127 -60 -18 -89 -2
-89 51 0 23 5 50 10 61 16 30 94 65 153 68 14 1 17 -8 17 -53z"/>
<path d="M11708 5627 c-77 -53 -86 -133 -21 -194 l34 -33 -25 -10 c-20 -7 -26
-16 -26 -41 0 -26 5 -33 40 -46 l39 -16 -44 -28 c-66 -42 -83 -89 -49 -137 21
-31 58 -44 124 -43 119 0 196 67 170 147 -14 42 -41 59 -137 85 -93 25 -113
35 -113 54 0 19 11 25 76 35 67 11 98 29 124 73 23 38 25 82 5 117 -21 36 -18
42 13 35 18 -4 33 -1 40 7 9 11 -10 14 -103 15 -102 1 -118 -1 -147 -20z m123
-7 c52 -29 65 -145 19 -182 -47 -38 -131 -12 -157 49 -17 41 -10 98 14 126 18
19 92 24 124 7z m29 -362 c111 -56 53 -183 -75 -164 -64 10 -105 40 -105 77 0
41 15 66 53 89 42 26 73 25 127 -2z"/>
<path d="M12135 5631 c-74 -45 -101 -105 -93 -206 8 -96 83 -163 173 -152 47
5 97 26 102 44 3 7 -12 3 -34 -8 -101 -51 -179 1 -197 133 l-7 47 123 3 123 3
3 35 c3 43 -28 97 -64 110 -40 16 -96 12 -129 -9z m128 -20 c10 -10 22 -34 27
-54 l8 -37 -104 0 c-117 0 -122 5 -84 67 31 52 112 65 153 24z"/>
<path d="M12432 5643 c-10 -4 -8 -9 7 -20 20 -13 21 -24 21 -176 l0 -162 47
-1 c35 -1 42 1 25 7 -21 8 -22 13 -22 134 l0 125 41 41 c46 46 71 47 79 4 6
-30 6 -30 13 -5 12 44 8 60 -14 60 -30 0 -60 -18 -90 -53 l-26 -30 -7 41 c-6
38 -9 42 -34 41 -15 0 -33 -3 -40 -6z"/>
</g>
</svg>
